<?xml version="1.0" standalone="no"?> <!DOCTYPE svg PUBLIC "-//W3C//DTD SVG 20010904//EN" "http://www.w3.org/TR/2001/REC-SVG-20010904/DTD/svg10.dtd"> <svg version="1.0" xmlns="http://www.w3.org/2000/svg" width="574.000000pt" height="598.000000pt" viewBox="0 0 574.000000 598.000000" preserveAspectRatio="xMidYMid meet"> <g transform="translate(0.000000,598.000000) scale(0.100000,-0.100000)" fill="#696969" stroke="none"> <path d="M1762 4860 c-612 -533 -1128 -981 -1145 -995 l-32 -25 168 0 167 0 0 -1540 0 -1540 1970 0 1970 0 0 1540 0 1540 155 0 156 0 -148 128 c-82 71 -595 519 -1142 995 -547 477 -997 867 -1001 867 -3 0 -506 -436 -1118 -970z m2125 -13 c551 -479 1016 -884 1035 -899 l33 -27 -2075 0 -2075 0 39 32 c21 18 487 422 1035 900 547 477 998 867 1001 867 3 0 456 -393 1007 -873z m893 -2507 l0 -1500 -1890 0 -1890 0 0 1500 0 1500 1890 0 1890 0 0 -1500z"/> <path d="M3583 3529 c-243 -47 -412 -316 -345 -549 l13 -45 -175 -177 c-96 -98 -178 -178 -183 -178 -10 0 -463 455 -463 467 -1 21 -29 205 -32 207 -3 2 -110 66 -375 223 l-88 51 -87 -86 -87 -86 32 -56 c18 -30 79 -137 136 -237 l104 -182 76 -6 c127 -11 115 -3 366 -254 l234 -234 -228 -229 -228 -229 -53 12 c-210 45 -417 -53 -508 -241 -36 -72 -37 -79 -37 -185 0 -157 8 -156 171 6 l124 124 52 -19 c29 -10 76 -27 105 -38 l51 -19 36 -98 c20 -54 36 -102 36 -107 0 -5 -55 -63 -121 -130 -142 -143 -150 -166 -60 -179 178 -24 371 87 454 263 33 70 46 237 24 315 -7 26 6 41 220 257 l228 230 45 -45 45 -45 -43 -41 c-24 -23 -42 -48 -40 -55 7 -33 823 -837 873 -860 132 -62 309 24 358 175 47 146 47 146 -441 636 -227 228 -420 415 -428 415 -8 0 -32 -19 -55 -42 l-40 -42 -45 45 -44 44 178 178 178 178 54 -12 c289 -62 550 148 550 442 0 142 -28 139 -180 -21 -126 -132 -118 -128 -186 -101 -27 11 -70 27 -96 36 -46 17 -46 18 -82 111 -20 52 -36 100 -36 107 0 7 54 66 120 132 128 128 144 157 94 175 -30 12 -111 11 -171 -1z m10 -161 l-117 -118 11 -37 c14 -50 50 -149 69 -194 17 -39 22 -41 212 -109 l64 -23 119 119 119 119 0 -45 c-1 -252 -277 -457 -505 -375 -22 8 -45 15 -52 15 -6 0 -96 -85 -200 -190 l-188 -190 -97 97 -98 98 191 191 192 192 -17 48 c-83 244 123 530 377 521 l38 -1 -118 -118z m-1451 -24 c106 -63 198 -120 204 -127 6 -7 16 -55 23 -107 l12 -95 416 -417 417 -417 -56 -57 -56 -56 -416 419 -416 420 -102 14 -102 14 -99 170 c-54 94 -108 187 -120 208 l-21 37 54 55 c30 30 57 55 61 55 4 0 94 -52 201 -116z m557 -1430 l-241 -241 16 -53 c69 -233 -90 -482 -324 -509 -102 -12 -101 -9 24 116 64 64 116 121 116 127 -1 26 -89 251 -101 258 -22 12 -233 88 -244 88 -5 0 -63 -53 -128 -117 l-119 -118 5 72 c16 249 264 419 507 347 l53 -16 241 241 241 241 97 -97 98 -98 -241 -241z m641 38 c-80 -82 -149 -150 -155 -151 -5 0 -40 29 -77 66 l-68 68 152 152 153 153 70 -70 70 -70 -145 -148z m492 -199 c168 -170 313 -322 322 -340 21 -43 21 -141 0 -173 -80 -119 -187 -163 -285 -116 -19 9 -172 154 -341 323 l-307 308 147 152 c81 83 149 152 152 152 3 1 143 -137 312 -306z"/> </g> </svg>